{
  "accessors": [
    {
      "bufferView": 2,
      "componentType": 5126,
      "count": 13888,
      "max": [
        92.19239807128906,
        172.2738494873047,
        17.817644119262695
      ],
      "min": [
        -92.19239044189453,
        -1.053443431854248,
        -20.534204483032227
      ],
      "type": "VEC3"
    },
    {
      "bufferView": 2,
      "byteOffset": 166656,
      "componentType": 5126,
      "count": 13888,
      "max": [
        0.9999783039093018,
        1.0,
        1.0
      ],
      "min": [
        -0.9999783039093018,
        -0.9999999403953552,
        -1.0
      ],
      "type": "VEC3"
    },
    {
      "bufferView": 1,
      "componentType": 5126,
      "count": 13888,
      "max": [
        0.9204448461532593,
        0.8132119178771973
      ],
      "min": [
        0.065405935049057,
        0.009449359029531479
      ],
      "type": "VEC2"
    },
    {
      "bufferView": 0,
      "componentType": 5125,
      "count": 83280,
      "type": "SCALAR"
    }
  ],
  "asset": {
    "extras": {
      "author": "muratarslan (https://sketchfab.com/muratarslan)",
      "license": "CC-BY-4.0 (http://creativecommons.org/licenses/by/4.0/)",
      "source": "https://sketchfab.com/3d-models/popo-stickman-a85d541f011e44799a023210d5846f45",
      "title": "Popo Stickman"
    },
    "generator": "Sketchfab-13.80.0",
    "version": "2.0"
  },
  "bufferViews": [
    {
      "buffer": 0,
      "byteLength": 333120,
      "name": "floatBufferViews",
      "target": 34963
    },
    {
      "buffer": 0,
      "byteLength": 111104,
      "byteOffset": 333120,
      "byteStride": 8,
      "name": "floatBufferViews",
      "target": 34962
    },
    {
      "buffer": 0,
      "byteLength": 333312,
      "byteOffset": 444224,
      "byteStride": 12,
      "name": "floatBufferViews",
      "target": 34962
    }
  ],
  "buffers": [
    {
      "byteLength": 777536,
      "uri": "scene.bin"
    }
  ],
  "extensionsRequired": [
    "KHR_materials_pbrSpecularGlossiness"
  ],
  "extensionsUsed": [
    "KHR_materials_pbrSpecularGlossiness"
  ],
  "materials": [
    {
      "doubleSided": true,
      "extensions": {
        "KHR_materials_pbrSpecularGlossiness": {
          "diffuseFactor": [
            0.512241594656483,
            0.512241594656483,
            0.512241594656483,
            1.0
          ],
          "glossinessFactor": 0.5714303129304774,
          "specularFactor": [
            0.000680608859339356,
            0.016791459801945057,
            0.021701928664238358
          ]
        }
      },
      "name": "Material.004"
    }
  ],
  "meshes": [
    {
      "name": "Stickman.001_Material.004_0",
      "primitives": [
        {
          "attributes": {
            "NORMAL": 1,
            "POSITION": 0,
            "TEXCOORD_0": 2
          },
          "indices": 3,
          "material": 0,
          "mode": 4
        }
      ]
    }
  ],
  "nodes": [
    {
      "children": [
        1
      ],
      "matrix": [
        1.0,
        0.0,
        0.0,
        0.0,
        0.0,
        2.220446049250313e-16,
        -1.0,
        0.0,
        0.0,
        1.0,
        2.220446049250313e-16,
        0.0,
        0.0,
        0.0,
        0.0,
        1.0
      ],
      "name": "Sketchfab_model"
    },
    {
      "children": [
        2
      ],
      "matrix": [
        0.009999999776482582,
        0.0,
        0.0,
        0.0,
        0.0,
        0.0,
        0.009999999776482582,
        0.0,
        0.0,
        -0.009999999776482582,
        0.0,
        0.0,
        0.0,
        0.0,
        0.0,
        1.0
      ],
      "name": "8e84a79c4c2c477dab2e33bdf87ede84.fbx"
    },
    {
      "children": [
        3
      ],
      "name": "RootNode"
    },
    {
      "children": [
        4
      ],
      "name": "Stickman.001"
    },
    {
      "mesh": 0,
      "name": "Stickman.001_Material.004_0"
    }
  ],
  "scene": 0,
  "scenes": [
    {
      "name": "Sketchfab_Scene",
      "nodes": [
        0
      ]
    }
  ]
}
