{
    "asset": {
        "version": "2.0",
        "generator": "Open Asset Import Library (assimp v5.2.cf7d3637)"
    },
    "extensionsUsed": [
        "KHR_materials_volume",
        "FB_ngon_encoding"
    ],
    "accessors": [
        {
            "bufferView": 0,
            "byteOffset": 0,
            "componentType": 5126,
            "count": 30000,
            "type": "VEC3",
            "max": [
                0.9973430037498474,
                0.3513619899749756,
                0.9971269965171814
            ],
            "min": [
                -0.9970049858093262,
                -0.35391899943351748,
                -0.99788498878479
            ]
        },
        {
            "bufferView": 1,
            "byteOffset": 0,
            "componentType": 5126,
            "count": 30000,
            "type": "VEC3",
            "max": [
                0.9979356527328491,
                1.0,
                0.9998443722724915
            ],
            "min": [
                -0.998460590839386,
                -1.0,
                -0.9942804574966431
            ]
        },
        {
            "bufferView": 2,
            "byteOffset": 0,
            "componentType": 5126,
            "count": 30000,
            "type": "VEC2",
            "max": [
                0.9950569868087769,
                0.9998829960823059
            ],
            "min": [
                0.00014400000509340316,
                0.00004297494888305664
            ]
        },
        {
            "bufferView": 3,
            "byteOffset": 0,
            "componentType": 5125,
            "count": 30000,
            "type": "SCALAR",
            "max": [
                29999
            ],
            "min": [
                0
            ]
        }
    ],
    "buffers": [
        {
            "byteLength": 1080000,
            "uri": "result.bin"
        }
    ],
    "bufferViews": [
        {
            "buffer": 0,
            "byteOffset": 0,
            "byteLength": 360000,
            "target": 34962
        },
        {
            "buffer": 0,
            "byteOffset": 360000,
            "byteLength": 360000,
            "target": 34962
        },
        {
            "buffer": 0,
            "byteOffset": 720000,
            "byteLength": 240000,
            "target": 34962
        },
        {
            "buffer": 0,
            "byteOffset": 960000,
            "byteLength": 120000,
            "target": 34963
        }
    ],
    "images": [
        {
            "name": "temp.fbm/texture_0.png",
            "uri": "data:image/png;base64,"
        }
    ],
    "materials": [
        {
            "name": "Material.001",
            "pbrMetallicRoughness": {
                "baseColorTexture": {
                    "index": 0
                },
                "baseColorFactor": [
                    0.800000011920929,
                    0.800000011920929,
                    0.800000011920929,
                    1.0
                ],
                "metallicFactor": 0.0,
                "roughnessFactor": 0.5
            }
        }
    ],
    "meshes": [
        {
            "name": "input",
            "primitives": [
                {
                    "mode": 4,
                    "material": 0,
                    "indices": 3,
                    "attributes": {
                        "POSITION": 0,
                        "NORMAL": 1,
                        "TEXCOORD_0": 2
                    }
                }
            ]
        }
    ],
    "nodes": [
        {
            "name": "RootNode",
            "children": [
                1
            ]
        },
        {
            "name": "input",
            "matrix": [
                100.0,
                0.0,
                0.0,
                0.0,
                0.0,
                100.0,
                0.0,
                0.0,
                0.0,
                0.0,
                100.0,
                0.0,
                0.0,
                0.0,
                0.0,
                1.0
            ],
            "mesh": 0,
            "extras": {
                "UserProperties": "",
                "IsNull": false,
                "DefaultAttributeIndex": 0,
                "InheritType": 1
            }
        }
    ],
    "samplers": [
        {}
    ],
    "scenes": [
        {
            "nodes": [
                0
            ]
        }
    ],
    "textures": [
        {
            "source": 0,
            "sampler": 0
        }
    ],
    "scene": 0
}