{
	"asset":{
		"generator":"Khronos glTF Blender I/O v4.3.47",
		"version":"2.0"
	},
	"extensionsUsed":[
		"KHR_materials_specular",
		"KHR_materials_ior"
	],
	"scene":0,
	"scenes":[
		{
			"name":"Scene",
			"nodes":[
				0,
				1,
				2,
				3
			]
		}
	],
	"nodes":[
		{
			"mesh":0,
			"name":"GRASS",
			"scale":[
				5.632226467132568,
				5.632226467132568,
				5.632226467132568
			]
		},
		{
			"mesh":1,
			"name":"Circle",
			"scale":[
				0.06203034147620201,
				0.11271946877241135,
				0.06203034147620201
			],
			"translation":[
				-2.270724296569824,
				3.9572479724884033,
				-2.8417465686798096
			]
		},
		{
			"mesh":2,
			"name":"Sphere",
			"scale":[
				0.1500125676393509,
				0.1500125676393509,
				0.1500125676393509
			],
			"translation":[
				-2.26662540435791,
				5.973127365112305,
				-2.836622476577759
			]
		},
		{
			"mesh":3,
			"name":"Plane",
			"rotation":[
				0.5,
				0.5,
				-0.5,
				0.5000000596046448
			],
			"scale":[
				0.7458016872406006,
				0.4972011148929596,
				0.4972011148929596
			],
			"translation":[
				-2.23227596282959,
				5.242023468017578,
				-3.596973180770874
			]
		}
	],
	"materials":[
		{
			"doubleSided":true,
			"name":"GRASS",
			"pbrMetallicRoughness":{
				"baseColorFactor":[
					0.09989789128303528,
					0.2961386442184448,
					0.13843172788619995,
					1
				],
				"metallicFactor":0,
				"roughnessFactor":0.5
			}
		},
		{
			"doubleSided":true,
			"name":"SNOW",
			"pbrMetallicRoughness":{
				"baseColorFactor":[
					0.800000011920929,
					0.800000011920929,
					0.800000011920929,
					1
				],
				"metallicFactor":0,
				"roughnessFactor":0.5
			}
		},
		{
			"doubleSided":true,
			"name":"Material",
			"pbrMetallicRoughness":{
				"metallicFactor":0,
				"roughnessFactor":0.5
			}
		},
		{
			"doubleSided":true,
			"name":"Material.001"
		},
		{
			"doubleSided":true,
			"extensions":{
				"KHR_materials_specular":{
					"specularColorTexture":{
						"index":0,
						"texCoord":1
					}
				},
				"KHR_materials_ior":{
					"ior":1.4500000476837158
				}
			},
			"name":"Shiny Gold clean (gold)",
			"pbrMetallicRoughness":{
				"baseColorTexture":{
					"index":1,
					"texCoord":1
				},
				"metallicRoughnessTexture":{
					"index":2,
					"texCoord":1
				}
			}
		},
		{
			"doubleSided":true,
			"name":"Material.003",
			"pbrMetallicRoughness":{
				"baseColorTexture":{
					"index":3
				},
				"metallicFactor":0,
				"roughnessFactor":0.5
			}
		}
	],
	"meshes":[
		{
			"name":"Plane",
			"primitives":[
				{
					"attributes":{
						"POSITION":0,
						"NORMAL":1,
						"TEXCOORD_0":2
					},
					"indices":3,
					"material":0
				},
				{
					"attributes":{
						"POSITION":4,
						"NORMAL":5,
						"TEXCOORD_0":6
					},
					"indices":7,
					"material":1
				},
				{
					"attributes":{
						"POSITION":8,
						"NORMAL":9,
						"TEXCOORD_0":10
					},
					"indices":11,
					"material":2
				}
			]
		},
		{
			"name":"Circle",
			"primitives":[
				{
					"attributes":{
						"POSITION":12,
						"NORMAL":13,
						"TEXCOORD_0":14
					},
					"indices":15,
					"material":3
				}
			]
		},
		{
			"name":"Sphere",
			"primitives":[
				{
					"attributes":{
						"POSITION":16,
						"NORMAL":17,
						"TEXCOORD_0":18,
						"TEXCOORD_1":19
					},
					"indices":20,
					"material":4
				}
			]
		},
		{
			"name":"Plane.001",
			"primitives":[
				{
					"attributes":{
						"POSITION":21,
						"NORMAL":22,
						"TEXCOORD_0":23
					},
					"indices":24,
					"material":5
				}
			]
		}
	],
	"textures":[
		{
			"sampler":0,
			"source":0
		},
		{
			"sampler":0,
			"source":1
		},
		{
			"sampler":0,
			"source":2
		},
		{
			"sampler":0,
			"source":3
		}
	],
	"images":[
		{
			"mimeType":"image/jpeg",
			"name":"specu ",
			"uri":"specu%20.jpg"
		},
		{
			"mimeType":"image/jpeg",
			"name":"BASE COLOR_clean gold",
			"uri":"BASE%20COLOR_clean%20gold.jpg"
		},
		{
			"mimeType":"image/png",
			"name":"Metallic_clean gold-ROUGHNESS_clean gold",
			"uri":"Metallic_clean%20gold-ROUGHNESS_clean%20gold.png"
		},
		{
			"mimeType":"image/png",
			"name":"Flag_of_South_Korea.svg",
			"uri":"Flag_of_South_Korea_svg.png"
		}
	],
	"accessors":[
		{
			"bufferView":0,
			"componentType":5126,
			"count":8915,
			"max":[
				1,
				0.6373378038406372,
				1
			],
			"min":[
				-0.9996830821037292,
				-0.07533343136310577,
				-1
			],
			"type":"VEC3"
		},
		{
			"bufferView":1,
			"componentType":5126,
			"count":8915,
			"type":"VEC3"
		},
		{
			"bufferView":2,
			"componentType":5126,
			"count":8915,
			"type":"VEC2"
		},
		{
			"bufferView":3,
			"componentType":5123,
			"count":51480,
			"type":"SCALAR"
		},
		{
			"bufferView":4,
			"componentType":5126,
			"count":350,
			"max":[
				-0.15625,
				0.7305166721343994,
				0.53125
			],
			"min":[
				-0.6875,
				0.38297906517982483,
				-0.75
			],
			"type":"VEC3"
		},
		{
			"bufferView":5,
			"componentType":5126,
			"count":350,
			"type":"VEC3"
		},
		{
			"bufferView":6,
			"componentType":5126,
			"count":350,
			"type":"VEC2"
		},
		{
			"bufferView":7,
			"componentType":5123,
			"count":1740,
			"type":"SCALAR"
		},
		{
			"bufferView":8,
			"componentType":5126,
			"count":383,
			"max":[
				1,
				0.43899452686309814,
				0.0625
			],
			"min":[
				-0.59375,
				-0.0209128949791193,
				-0.6875
			],
			"type":"VEC3"
		},
		{
			"bufferView":9,
			"componentType":5126,
			"count":383,
			"type":"VEC3"
		},
		{
			"bufferView":10,
			"componentType":5126,
			"count":383,
			"type":"VEC2"
		},
		{
			"bufferView":11,
			"componentType":5123,
			"count":1812,
			"type":"SCALAR"
		},
		{
			"bufferView":12,
			"componentType":5126,
			"count":96,
			"max":[
				1,
				17.88404083251953,
				1
			],
			"min":[
				-1,
				0,
				-1
			],
			"type":"VEC3"
		},
		{
			"bufferView":13,
			"componentType":5126,
			"count":96,
			"type":"VEC3"
		},
		{
			"bufferView":14,
			"componentType":5126,
			"count":96,
			"type":"VEC2"
		},
		{
			"bufferView":15,
			"componentType":5123,
			"count":564,
			"type":"SCALAR"
		},
		{
			"bufferView":16,
			"componentType":5126,
			"count":707,
			"max":[
				1.101802945137024,
				1,
				1.101801872253418
			],
			"min":[
				-1.101801872253418,
				-1,
				-1.1018035411834717
			],
			"type":"VEC3"
		},
		{
			"bufferView":17,
			"componentType":5126,
			"count":707,
			"type":"VEC3"
		},
		{
			"bufferView":18,
			"componentType":5126,
			"count":707,
			"type":"VEC2"
		},
		{
			"bufferView":19,
			"componentType":5126,
			"count":707,
			"type":"VEC2"
		},
		{
			"bufferView":20,
			"componentType":5123,
			"count":2880,
			"type":"SCALAR"
		},
		{
			"bufferView":21,
			"componentType":5126,
			"count":4,
			"max":[
				1,
				0,
				1
			],
			"min":[
				-1,
				0,
				-1
			],
			"type":"VEC3"
		},
		{
			"bufferView":22,
			"componentType":5126,
			"count":4,
			"type":"VEC3"
		},
		{
			"bufferView":23,
			"componentType":5126,
			"count":4,
			"type":"VEC2"
		},
		{
			"bufferView":24,
			"componentType":5123,
			"count":6,
			"type":"SCALAR"
		}
	],
	"bufferViews":[
		{
			"buffer":0,
			"byteLength":106980,
			"byteOffset":0,
			"target":34962
		},
		{
			"buffer":0,
			"byteLength":106980,
			"byteOffset":106980,
			"target":34962
		},
		{
			"buffer":0,
			"byteLength":71320,
			"byteOffset":213960,
			"target":34962
		},
		{
			"buffer":0,
			"byteLength":102960,
			"byteOffset":285280,
			"target":34963
		},
		{
			"buffer":0,
			"byteLength":4200,
			"byteOffset":388240,
			"target":34962
		},
		{
			"buffer":0,
			"byteLength":4200,
			"byteOffset":392440,
			"target":34962
		},
		{
			"buffer":0,
			"byteLength":2800,
			"byteOffset":396640,
			"target":34962
		},
		{
			"buffer":0,
			"byteLength":3480,
			"byteOffset":399440,
			"target":34963
		},
		{
			"buffer":0,
			"byteLength":4596,
			"byteOffset":402920,
			"target":34962
		},
		{
			"buffer":0,
			"byteLength":4596,
			"byteOffset":407516,
			"target":34962
		},
		{
			"buffer":0,
			"byteLength":3064,
			"byteOffset":412112,
			"target":34962
		},
		{
			"buffer":0,
			"byteLength":3624,
			"byteOffset":415176,
			"target":34963
		},
		{
			"buffer":0,
			"byteLength":1152,
			"byteOffset":418800,
			"target":34962
		},
		{
			"buffer":0,
			"byteLength":1152,
			"byteOffset":419952,
			"target":34962
		},
		{
			"buffer":0,
			"byteLength":768,
			"byteOffset":421104,
			"target":34962
		},
		{
			"buffer":0,
			"byteLength":1128,
			"byteOffset":421872,
			"target":34963
		},
		{
			"buffer":0,
			"byteLength":8484,
			"byteOffset":423000,
			"target":34962
		},
		{
			"buffer":0,
			"byteLength":8484,
			"byteOffset":431484,
			"target":34962
		},
		{
			"buffer":0,
			"byteLength":5656,
			"byteOffset":439968,
			"target":34962
		},
		{
			"buffer":0,
			"byteLength":5656,
			"byteOffset":445624,
			"target":34962
		},
		{
			"buffer":0,
			"byteLength":5760,
			"byteOffset":451280,
			"target":34963
		},
		{
			"buffer":0,
			"byteLength":48,
			"byteOffset":457040,
			"target":34962
		},
		{
			"buffer":0,
			"byteLength":48,
			"byteOffset":457088,
			"target":34962
		},
		{
			"buffer":0,
			"byteLength":32,
			"byteOffset":457136,
			"target":34962
		},
		{
			"buffer":0,
			"byteLength":12,
			"byteOffset":457168,
			"target":34963
		}
	],
	"samplers":[
		{
			"magFilter":9729,
			"minFilter":9987
		}
	],
	"buffers":[
		{
			"byteLength":457180,
			"uri":"untitled.bin"
		}
	]
}
